<svg xmlns="http://www.w3.org/2000/svg" viewBox="0 0 256 256">
  <rect width="256" height="256" rx="48" fill="#050816"></rect>
  <path d="M70 102C82 82 101 78 128 88C155 78 174 82 186 102C202 130 211 181 194 194C181 204 160 183 145 174H111C96 183 75 204 62 194C45 181 54 130 70 102Z" fill="url(#g)"></path>
  <circle cx="96" cy="116" r="13" fill="#7c6ff6"></circle>
  <circle cx="160" cy="116" r="9" fill="#22d3ee"></circle>
  <circle cx="178" cy="116" r="9" fill="#fb7185"></circle>
  <circle cx="169" cy="134" r="9" fill="#22c55e"></circle>
  <circle cx="151" cy="134" r="9" fill="#60a5fa"></circle>
  <rect x="89" y="147" width="34" height="10" rx="5" fill="#c4b5fd"></rect>
  <rect x="101" y="135" width="10" height="34" rx="5" fill="#c4b5fd"></rect>
  <circle cx="128" cy="98" r="8" fill="#d8b4fe"></circle>
  <defs>
    <linearGradient id="g" x1="54" y1="82" x2="204" y2="204">
      <stop stop-color="#4f46e5"></stop>
      <stop offset="1" stop-color="#a855f7"></stop>
    </linearGradient>
  </defs>
</svg>